<?xml version="1.0" encoding="UTF-8" standalone="no"?>
<!-- Created with Inkscape (http://www.inkscape.org/) -->

<svg
   xmlns:dc="http://purl.org/dc/elements/1.1/"
   xmlns:cc="http://creativecommons.org/ns#"
   xmlns:rdf="http://www.w3.org/1999/02/22-rdf-syntax-ns#"
   xmlns:svg="http://www.w3.org/2000/svg"
   xmlns="http://www.w3.org/2000/svg"
   xmlns:sodipodi="http://sodipodi.sourceforge.net/DTD/sodipodi-0.dtd"
   xmlns:inkscape="http://www.inkscape.org/namespaces/inkscape"
   width="744.09448819"
   height="1052.3622047"
   id="svg2"
   version="1.1"
   inkscape:version="0.48.4 r9939"
   sodipodi:docname="logo.svg">
  <defs
     id="defs4" />
  <sodipodi:namedview
     id="base"
     pagecolor="#ffffff"
     bordercolor="#666666"
     borderopacity="1.0"
     inkscape:pageopacity="0.0"
     inkscape:pageshadow="2"
     inkscape:zoom="0.35355339"
     inkscape:cx="751.98047"
     inkscape:cy="554.23044"
     inkscape:document-units="px"
     inkscape:current-layer="g3056"
     showgrid="false"
     inkscape:snap-nodes="true"
     inkscape:window-width="1366"
     inkscape:window-height="749"
     inkscape:window-x="0"
     inkscape:window-y="19"
     inkscape:window-maximized="0" />
  <metadata
     id="metadata7">
    <rdf:RDF>
      <cc:Work
         rdf:about="">
        <dc:format>image/svg+xml</dc:format>
        <dc:type
           rdf:resource="http://purl.org/dc/dcmitype/StillImage" />
        <dc:title></dc:title>
      </cc:Work>
    </rdf:RDF>
  </metadata>
  <g
     inkscape:label="Layer 1"
     inkscape:groupmode="layer"
     id="layer1">
    <g
       id="g3056"
       transform="matrix(3.3029067,0,0,3.3029067,-547.32771,-809.20921)"
       style="fill:#000000">
      <path
         style="fill:#ffffff;fill-opacity:1"
         d="m 265.27901,550.79973 c -2.61005,-1.90852 -3.68099,-7.74619 -4.16865,-22.72322 -0.35963,-11.04484 -0.97954,-15.40957 -3.40863,-24 -4.09441,-14.47978 -5.02725,-21.27525 -5.14775,-37.5 -0.0572,-7.7 -1.28399,-16.40635 -1.25756,-19.49362 0.0222,-2.59646 0.24596,-4.12865 -0.0172,-5.52357 -1.65,-0.77592 -6.59889,-2.47962 -7.72902,-3.65043 -1.80742,-1.88246 -3.61991,-6.82425 -9.12257,-7.44641 -3.70416,-0.41881 -8.09936,-4.65971 -8.60989,-7.96806 -0.34385,-2.22823 -0.93643,-4.71639 -4.77772,-7.02395 -3.63662,-2.18461 -0.11254,-6.71573 -4.0657,-8.7156 -3.27975,-1.65921 -1.74607,-5.33944 -3.35863,-6.69884 -1.75058,-1.32047 -1.26348,-2.74652 -0.85366,-4.26462 0.28463,-1.05437 -0.2134,-1.9899 -0.64613,-2.14295 -0.34569,-0.12227 -1.57055,-1.42624 -2.56614,-3.08149 -2.397,-3.9852 -3.00887,-17.18182 -0.85961,-18.53965 1.94551,-1.22911 4.88947,-4.0381 10.13258,-0.47831 4.09844,2.78262 7.16723,2.01319 17.95476,-1.0094 4.17152,-1.16884 16.82401,-4.72907 17.83695,-7.59417 1.4648,-4.14319 2.3512,-15.59889 -1.57756,-20.0408 -4.32839,-4.89374 -3.58831,-7.38993 5.79742,-19.55405 2.99376,-3.87999 3.73614,-4.27971 9.06889,-4.88305 6.60336,-0.74708 10.25754,-3.08873 11.01662,-7.0596 0.62179,-3.25273 -2.02734,-7.98107 -3.59387,-6.41454 -1.78006,1.78006 -6.66488,-6.16617 -7.91156,-12.86989 -0.69382,-3.7308 -1.6242,-6.047 -2.429,-6.047 -3.69314,0 -1.89248,-14.51242 2.32645,-18.75 2.46995,-2.48087 6.28518,-2.89642 9.64674,-1.0507 1.20134,0.65962 3.14909,1.08366 4.32832,0.94232 3.08824,-0.37016 8.77197,2.24596 13.76056,6.33374 3.08012,2.52392 4.95179,5.18132 6.50139,9.23066 1.9888,5.19707 2.08063,6.3364 1.06711,13.24018 -1.5737,10.71966 -1.89718,12.0538 -2.92262,12.0538 -0.50127,0 -1.0552,-1.0125 -1.23095,-2.25 -0.26833,-1.88932 -0.76949,-1.45208 -3.12636,2.7276 -3.84221,6.81376 -2.9041,8.62678 5.98775,11.57213 3.75048,1.24232 7.81177,2.90313 9.02508,3.69071 1.21332,0.78757 2.6626,1.14977 3.22064,0.80489 1.88117,-1.16263 6.78197,2.2551 7.40084,5.16122 0.52961,2.48697 2.10789,5.3113 5.80534,10.38867 1.9499,2.67764 0.14148,6.58351 -4.63706,10.01519 l -4.49578,3.22863 0,6.41387 c 0,3.52762 0.87495,9.86384 1.94432,14.08048 1.06938,4.21663 2.45723,13.51661 3.08411,20.66661 0.94579,10.78735 1.57429,13.76592 3.69266,17.5 4.44151,7.82912 5.11588,9.40422 5.77998,13.5 0.46063,2.84089 -0.19929,4.55423 -1.03685,3.55092 -0.34377,-0.4118 -0.16038,-2.88697 -0.58712,-3.39472 -0.36261,0.4517 -0.74097,1.79622 -1.64479,2.63356 -0.90382,0.83734 -2.49585,1.45243 -3.16715,1.60087 -0.68597,0.15168 -2.91711,1.37552 -4.92126,2.92304 -1.0258,0.79208 -2.13282,2.53 -3.4413,2.6062 -2.73766,0.15942 -1.81453,3.42284 -6.16528,3.09577 -6.09551,-0.45823 -3.93662,2.85096 -9.62976,2.76298 -4.19927,-0.0649 -5.17707,3.86864 -8.65741,2.22138 -3.24333,-1.53508 -6.78512,0.77695 -7.30237,0.59686 -0.8696,3.00957 -0.91565,12.15205 -0.93216,16.8114 -0.0108,3.04372 1.20838,7.06774 3.93863,13 4.12025,8.95242 7.0274,21.89963 7.06684,31.47273 0.0204,4.96086 3.9902,18.35492 5.79025,19.53645 1.1183,0.73403 0.67413,14.32713 -0.63264,19.36091 -0.53948,2.07809 -1.53048,4.44059 -2.20223,5.25 -1.45455,1.75263 -9.52607,2.00944 -10.56031,0.33599 -1.13875,-1.84254 -0.80145,-11.87905 0.44098,-13.12148 0.62857,-0.62857 1.14025,-3.64036 1.13707,-6.69286 -0.0116,-11.08575 -1.6684,-17.06676 -8.46282,-30.55 -3.60299,-7.15 -6.54651,-13.54562 -6.54115,-14.21249 0.0153,-1.89594 -4.05434,-12.28751 -4.81209,-12.28751 -0.37298,0 -0.68028,4.6125 -0.68288,10.25 -0.003,5.6375 -0.21214,15.2 -0.46563,21.25 -0.49734,11.86973 1.9041,26.40264 5.52211,33.41856 2.20383,4.27358 2.0757,11.1226 -0.24006,12.83144 -2.18686,1.61373 -6.45,1.60057 -8.67553,-0.0268 z m 57.36384,-125.25534 c 0,-1.39266 -0.675,-4.14762 -1.5,-6.12212 -0.825,-1.97451 -1.5,-4.90267 -1.5,-6.50704 0,-1.60436 -2.28132,-9.86547 -5.06959,-18.35802 -4.82932,-14.70919 -7.89943,-30.49383 -7.9221,-40.7307 -0.005,-2.0625 -0.45831,-3.75 -1.00831,-3.75 -0.55,0 -1,1.13945 -1,2.53212 0,1.39266 -0.71764,4.20516 -1.59476,6.25 -1.93458,4.51012 -5.17798,15.11257 -6.46197,21.1237 -0.81328,3.80747 -0.60171,5.1232 1.55782,9.68807 1.3744,2.90524 2.50177,6.09763 2.50526,7.09418 0.0122,3.4812 8.95634,19.42698 14.20318,25.32169 5.75971,6.4709 7.79047,7.37234 7.79047,3.45812 z m 5.4157,0.89122 c 0.56465,-1.47147 -1.71266,-6.3591 -2.96291,-6.3591 -0.27561,0 -0.37773,1.79934 -0.22695,3.99853 0.27801,4.05466 2.03954,5.35823 3.18986,2.36057 z m -83.13872,-48.08487 c -3.81873,-0.2325 -4.63388,0.17755 -10.45943,0.20436 -9.52814,0.0439 -11.31371,0.37417 -13.40112,-0.51222 -3.45356,-1.4665 -7.45487,0.30898 -4.31995,3.82939 2.44754,2.7485 13.98985,7.33305 20.41753,3.23021 2.74074,-1.74943 6.68765,-5.2147 7.76297,-6.75173 z"
         id="path3058"
         inkscape:connector-curvature="0"
         sodipodi:nodetypes="cssssccsssscssssssssssssssssssssssssssssscssssssczsssssscsssssssssscscsssccsssscsssssssssssscsssscc" />
    </g>
  </g>
</svg>
